<svg xmlns="http://www.w3.org/2000/svg" width="30.01" height="35.858" viewBox="0 0 30.01 35.858">
  <g id="ベルの無料のアイコン素材_その2" data-name="ベルの無料のアイコン素材 その2" transform="translate(-41.751)">
    <path id="パス_395" data-name="パス 395" d="M193.2,457.568a4.441,4.441,0,0,0,8.754,0l.022-.13h-8.8Z" transform="translate(-140.823 -425.401)" fill="#231815"/>
    <path id="パス_396" data-name="パス 396" d="M71.728,26.052c-.359-.359-.725-.663-1.079-.957-1.488-1.236-2.774-2.3-2.774-6.735V14.844A11.167,11.167,0,0,0,59.219,4a2.7,2.7,0,0,0,.3-1.236,2.766,2.766,0,0,0-5.532,0A2.7,2.7,0,0,0,54.293,4a11.167,11.167,0,0,0-8.657,10.842V18.36c0,4.432-1.286,5.5-2.774,6.735-.354.294-.72.6-1.079.957l-.033.033v3.488h30.01V26.084Z" transform="translate(0)" fill="#231815"/>
  </g>
</svg>
