<svg id="calendar-week" xmlns="http://www.w3.org/2000/svg" width="24" height="24" viewBox="0 0 24 24">
  <rect id="Rectangle_491" data-name="Rectangle 491" width="24" height="24" fill="none"/>
  <path id="Path_8" data-name="Path 8" d="M11,6.5a.5.5,0,0,1,.5-.5h1a.5.5,0,0,1,.5.5v1a.5.5,0,0,1-.5.5h-1a.5.5,0,0,1-.5-.5Zm-3,0A.5.5,0,0,1,8.5,6h1a.5.5,0,0,1,.5.5v1a.5.5,0,0,1-.5.5h-1A.5.5,0,0,1,8,7.5Zm-5,3A.5.5,0,0,1,3.5,9h1a.5.5,0,0,1,.5.5v1a.5.5,0,0,1-.5.5h-1a.5.5,0,0,1-.5-.5Zm3,0A.5.5,0,0,1,6.5,9h1a.5.5,0,0,1,.5.5v1a.5.5,0,0,1-.5.5h-1a.5.5,0,0,1-.5-.5Z" transform="translate(3 4)" fill="#231815"/>
  <path id="Path_9" data-name="Path 9" d="M3.5,0A.5.5,0,0,1,4,.5V1h8V.5a.5.5,0,1,1,1,0V1h1a2,2,0,0,1,2,2V14a2,2,0,0,1-2,2H2a2,2,0,0,1-2-2V3A2,2,0,0,1,2,1H3V.5A.5.5,0,0,1,3.5,0ZM1,4V14a1,1,0,0,0,1,1H14a1,1,0,0,0,1-1V4Z" transform="translate(4 4)" fill="#231815"/>
</svg>
