

<svg id="edit" xmlns="http://www.w3.org/2000/svg" width="20" height="20" viewBox="0" style="margin-top:1px">
  <g id="pencil-square" transform="translate(3.676 4.25)">
    <path id="Path_12" data-name="Path 12" d="M15.5,1.94a.5.5,0,0,1,0,.706L14.459,3.69l-2-2L13.5.646a.5.5,0,0,1,.707,0L15.5,1.939ZM13.752,4.4l-2-2L4.939,9.21a.5.5,0,0,0-.121.2l-.8,2.414a.25.25,0,0,0,.316.316l2.414-.805a.5.5,0,0,0,.2-.12L13.752,4.4Z" fill="#231815"/>
    <path id="Path_13" data-name="Path 13" d="M1,13.5A1.5,1.5,0,0,0,2.5,15h11A1.5,1.5,0,0,0,15,13.5v-6a.5.5,0,0,0-1,0v6a.5.5,0,0,1-.5.5H2.5a.5.5,0,0,1-.5-.5V2.5A.5.5,0,0,1,2.5,2H9A.5.5,0,0,0,9,1H2.5A1.5,1.5,0,0,0,1,2.5Z" fill="#231815" fill-rule="evenodd"/>
  </g>
</svg>
