<svg xmlns="http://www.w3.org/2000/svg" width="14.758" height="13.378" viewBox="0 0 14.758 13.378">
  <path id="eraser" d="M8.086,2.207a2,2,0,0,1,2.828,0l3.879,3.879a2,2,0,0,1,0,2.828l-5.5,5.5A2,2,0,0,1,7.879,15H5.12a2,2,0,0,1-1.414-.586l-2.5-2.5a2,2,0,0,1,0-2.828L8.085,2.207Zm2.121.707a1,1,0,0,0-1.414,0L4.16,7.547,9.453,12.84l4.633-4.633a1,1,0,0,0,0-1.414L10.207,2.914ZM8.746,13.547,3.453,8.254,1.914,9.793a1,1,0,0,0,0,1.414l2.5,2.5A1,1,0,0,0,5.121,14H7.88a1,1,0,0,0,.707-.293l.16-.16Z" transform="translate(-0.62 -1.622)"/>
</svg>
