<svg xmlns="http://www.w3.org/2000/svg" width="30.9" height="36.251" viewBox="0 0 30.9 36.251">
  <g id="ログインアイコン3" transform="translate(-37.79)">
    <path id="パス_405" data-name="パス 405" d="M155.81,0V12.312h2.366V2.366h16.681l-5.3,3.587a2.18,2.18,0,0,0-.958,1.806V28.025H158.176V19.972H155.81V30.391H168.6v5.022a.839.839,0,0,0,1.308.694l8.448-5.716V0Z" transform="translate(-109.664)" fill="#231815"/>
    <path id="パス_406" data-name="パス 406" d="M13.514,9.175a.335.335,0,0,0,.552.256l5.526-4.675L14.066.08a.335.335,0,0,0-.552.256V2.7H0V6.811H13.514V9.175Z" transform="translate(57.382 20.897) rotate(180)" fill="#231815"/>
  </g>
</svg>
