<svg xmlns="http://www.w3.org/2000/svg" width="19.879" height="19.165" viewBox="0 0 19.879 19.165">
  <path id="Union_5" data-name="Union 5" d="M17425-4595.951a3,3,0,0,1-3-3v-10.2a3,3,0,0,1,3-3h8.742l-6.447,6.452a2.524,2.524,0,0,0-.609.985l-1,2.985v.009a2.206,2.206,0,0,0,.539,2.259,2.2,2.2,0,0,0,1.563.648,2.336,2.336,0,0,0,.7-.109l2.99-1a2.56,2.56,0,0,0,.98-.6l4.789-4.789v6.36a3,3,0,0,1-3,3Zm2.668-4.789a.318.318,0,0,1-.1-.065.309.309,0,0,1-.074-.315l.992-2.985a.7.7,0,0,1,.068-.139.638.638,0,0,1,.086-.106l7.283-7.284h0l1.139-1.139,2.473,2.473-2.293,2.294-6.129,6.133a.609.609,0,0,1-.24.148l-2.986.994a.381.381,0,0,1-.1.018A.289.289,0,0,1,17427.666-4600.74Zm10.268-12.9,1.291-1.291a.62.62,0,0,1,.875,0l1.6,1.6a.618.618,0,0,1,0,.875l-1.291,1.291Z" transform="translate(-17422 4615.116)" fill="#f76b1f"/>
</svg>
