<svg xmlns="http://www.w3.org/2000/svg" xmlns:xlink="http://www.w3.org/1999/xlink" width="15.334" height="19.255" viewBox="0 0 15.334 19.255">
  <defs>
    <clipPath id="clip-path">
      <rect id="Rectangle_1017" data-name="Rectangle 1017" width="15.334" height="19.255" transform="translate(0 0)" fill="#f76b1f"/>
    </clipPath>
  </defs>
  <g id="Group_585" data-name="Group 585" transform="translate(0 0)">
    <g id="Group_585-2" data-name="Group 585" clip-path="url(#clip-path)">
      <path id="Path_138" data-name="Path 138" d="M12.49,9.549c0-3.216-2.174-5.824-4.854-5.824S2.783,6.333,2.783,9.549s2.174,5.824,4.853,5.824,4.854-2.608,4.854-5.824" fill="#ed6c00"/>
      <path id="Path_139" data-name="Path 139" d="M15.333,9.032V7.755c0-.058,0-.117,0-.175A7.667,7.667,0,0,0,0,7.755v6.388a1.278,1.278,0,0,0,1.278,1.278H2.556a1.276,1.276,0,0,0,1.182-.8A7.338,7.338,0,0,1,1.783,9.549c0-.175.012-.346.023-.517H1.278V7.755a6.389,6.389,0,1,1,12.778,0V9.032h-.528c.011.171.023.342.023.517A7.338,7.338,0,0,1,11.6,14.624a1.274,1.274,0,0,0,1.18.8h1.278a1.918,1.918,0,0,1-1.916,1.917H9.412A1.276,1.276,0,0,0,8.306,16.7H7.028c-.024,0-.047,0-.071,0a1.278,1.278,0,1,0,.071,2.555H8.306a1.276,1.276,0,0,0,1.106-.639h2.727a3.2,3.2,0,0,0,3.193-3.194V9.032Z" fill="#ed6c00"/>
    </g>
  </g>
</svg>
