<svg xmlns="http://www.w3.org/2000/svg" width="11.479" height="16.094" viewBox="0 0 11.479 16.094">
  <g id="award" transform="translate(-2.294)">
    <path id="Path_22" data-name="Path 22" d="M9.712.869,8.033,0,6.355.869l-1.869.284-.847,1.69L2.294,4.17,2.6,6.035,2.294,7.9,3.639,9.228l.847,1.69,1.869.284,1.679.869L9.712,11.2l1.869-.284.847-1.69L13.773,7.9l-.308-1.865.308-1.865L12.428,2.843l-.847-1.69Zm1.2,1.2L11.6,3.442,12.7,4.52l-.249,1.515L12.7,7.55,11.6,8.628,10.915,10l-1.519.23-1.363.706L6.67,10.232,5.152,10,4.464,8.628,3.371,7.55l.25-1.515L3.37,4.52,4.464,3.442l.688-1.373,1.519-.23,1.363-.706L9.4,1.839l1.518.23Z" fill="#231815"/>
    <path id="Path_23" data-name="Path 23" d="M4,11.794v4.231l4.023-1.006,4.023,1.006V11.794l-2.03.308L8.023,13.134,6.03,12.1Z" transform="translate(0.01 0.069)" fill="#231815"/>
  </g>
</svg>
