<svg id="Group_392" data-name="Group 392" xmlns="http://www.w3.org/2000/svg" xmlns:xlink="http://www.w3.org/1999/xlink" width="250" height="250" viewBox="0 0 250 250">
  <defs>
    <clipPath id="clip-path">
      <rect id="Rectangle_9205" data-name="Rectangle 9205" width="250" height="250" fill="none"/>
    </clipPath>
  </defs>
  <g id="Group_391" data-name="Group 391" clip-path="url(#clip-path)">
    <path id="Path_415" data-name="Path 415" d="M0,124.786a124.792,124.792,0,1,1,124.785,124.8A124.783,124.783,0,0,1,0,124.786" transform="translate(0 0)" fill="#302d2c"/>
    <path id="Path_416" data-name="Path 416" d="M126.08,82.8V66.648h-9.334V22.964H82.077V66.648H72.739V82.8H64.805v75.662h6.189A74.673,74.673,0,0,1,75.31,169.2a22.559,22.559,0,0,1,1.111,6.2v8.991H90.116v27.031H106.7V184.391H122.4V175.4a22.6,22.6,0,0,1,1.109-6.2,75.046,75.046,0,0,1,4.324-10.742h6.183V82.8ZM86.218,27.107H96.643v10.5H88.9V53.531h7.741V66.648H86.218ZM96.643,49.384h-3.6V41.751h3.6ZM76.885,70.8h45.054v12H76.885Zm31.821,16.148v32.085a9.642,9.642,0,0,1-.1,1.431,9.991,9.991,0,0,1-18.981,2.722,10.258,10.258,0,0,1-.806-2.722,12.893,12.893,0,0,1-.1-1.431V86.945Zm9.7,86.241H80.418c-.092-.7-.2-1.372-.34-2.036h38.668c-.137.664-.254,1.339-.336,2.036m1.474-6.179H78.944a75.431,75.431,0,0,0-3.359-8.549h47.653a76.74,76.74,0,0,0-3.354,8.549" transform="translate(25.569 9.061)" fill="#fff"/>
  </g>
</svg>
