<svg id="Group_396" data-name="Group 396" xmlns="http://www.w3.org/2000/svg" xmlns:xlink="http://www.w3.org/1999/xlink" width="250" height="250" viewBox="0 0 250 250">
  <defs>
    <clipPath id="clip-path">
      <rect id="Rectangle_9207" data-name="Rectangle 9207" width="250" height="250" fill="none"/>
    </clipPath>
  </defs>
  <g id="Group_395" data-name="Group 395" clip-path="url(#clip-path)">
    <path id="Path_420" data-name="Path 420" d="M0,124.993A125,125,0,1,1,125.007,250,125,125,0,0,1,0,124.993" transform="translate(0 0)" fill="#302d2c"/>
    <path id="Path_421" data-name="Path 421" d="M102.16,117.464a1.11,1.11,0,0,1,.527.884A1.045,1.045,0,0,1,101.6,119.4H85.238a1.073,1.073,0,0,1-.528-.137,1.042,1.042,0,0,1-.525-.916.987.987,0,0,1,.525-.884,1.046,1.046,0,0,1,.528-.142H101.6a1.151,1.151,0,0,1,.556.142" transform="translate(33.412 46.562)" fill="#fff"/>
    <path id="Path_422" data-name="Path 422" d="M104.546,141.638v33.181H87.928V141.638h-10.8V126.821h5.706a5.226,5.226,0,0,0,2.632,4.487A5.091,5.091,0,0,0,88.04,132h16.366a5.2,5.2,0,0,0,5.208-5.1h5.734v14.733Z" transform="translate(30.61 50.332)" fill="#fff"/>
    <path id="Path_423" data-name="Path 423" d="M99.972,108.8H101.6a.934.934,0,0,1,.555.137,1.011,1.011,0,0,1,0,1.775.915.915,0,0,1-.555.14H85.237a.835.835,0,0,1-.528-.14,1.013,1.013,0,0,1,0-1.775.851.851,0,0,1,.528-.137H99.972Z" transform="translate(33.411 43.179)" fill="#fff"/>
    <path id="Path_424" data-name="Path 424" d="M115.649,98.627l1.467.025a.953.953,0,0,1,.471.138,1.014,1.014,0,0,1,0,1.749.759.759,0,0,1-.471.163H76.567a.78.78,0,0,1-.5-.163,1.046,1.046,0,0,1,0-1.749.974.974,0,0,1,.5-.138l1.443-.025h37.639Z" transform="translate(30.003 39.143)" fill="#fff"/>
    <path id="Path_425" data-name="Path 425" d="M79.673,41.236h51.9V31.045h-51.9ZM68.04,140.862l1.965,18.833h3.351l1.968-18.833H68.04Zm74,18.833,1.968-18.833h-7.26l1.968,18.833ZM116.4,137.817a5.335,5.335,0,0,0-2.6-.666H97.426a5.333,5.333,0,0,0-2.577.666,5.235,5.235,0,0,0-2.632,4.512,5.161,5.161,0,0,0,2.632,4.488,5.1,5.1,0,0,0,2.577.693h16.367a5.193,5.193,0,0,0,2.6-9.693m0,11.934a5.1,5.1,0,0,0-2.6-.69H97.426a5.094,5.094,0,0,0-2.577.69,5.166,5.166,0,0,0,0,9,5.345,5.345,0,0,0,2.577.69h16.367a5.343,5.343,0,0,0,2.6-.69,5.194,5.194,0,0,0,0-9m8.032-16.422h1.386l.3-.028a4.806,4.806,0,0,0,2.466-.774,5.172,5.172,0,0,0,0-8.782,5.084,5.084,0,0,0-2.466-.775l-.3-.028H85.4l-.3.028a5.13,5.13,0,0,0-4.877,5.178,5.191,5.191,0,0,0,2.408,4.379,4.977,4.977,0,0,0,2.468.774l.3.028h39.025Zm8.035,6.286h-7.729v26.95H119v-.085a5.147,5.147,0,0,0-2.6-4.512,5.364,5.364,0,0,0-2.6-.7H97.426a5.367,5.367,0,0,0-2.577.7,5.235,5.235,0,0,0-2.632,4.512h-5.7V139.615h-6.9L77.1,163.848H66.267l-2.52-24.233H53.472V41.236h9.3V32.928h8.033v8.307H75.52V26.891h60.21V41.236h5.1V34.063h8.033v7.173h8.915v98.379h-9.44l-2.523,24.233H134.983Z" transform="translate(21.222 10.672)" fill="#fff"/>
    <path id="Path_426" data-name="Path 426" d="M102.16,126.206a1.174,1.174,0,0,1,.527.914,1.123,1.123,0,0,1-.527.887,1.15,1.15,0,0,1-.556.14H85.238a1.045,1.045,0,0,1-.528-.14,1,1,0,0,1-.525-.887,1.041,1.041,0,0,1,.525-.914,1.493,1.493,0,0,1,.528-.14H101.6a1.648,1.648,0,0,1,.556.14" transform="translate(33.412 50.032)" fill="#fff"/>
  </g>
</svg>
